HIERARCHY
ROOT Hips
{
  OFFSET 280.963 92.3047 322.597
  CHANNELS 6 Xposition Yposition Zposition Zrotation Xrotation Yrotation
  JOINT RightUpLeg
  {
    OFFSET -8.9458 -8.66707 0.101652
    CHANNELS 3 Zrotation Xrotation Yrotation
    JOINT RightLeg
    {
      OFFSET 0 -44.4227 1.3727
      CHANNELS 3 Zrotation Xrotation Yrotation
      JOINT RightFoot
      {
        OFFSET 0.253549 -42.0924 -1.46059
        CHANNELS 3 Zrotation Xrotation Yrotation
        JOINT RightToes
        {
          OFFSET 0.04 -4.41509 8.4991
          CHANNELS 3 Zrotation Xrotation Yrotation
          End Site
          {
            OFFSET -0.08 -0.137448 9.77979
          }
        }
      }
    }
  }
  JOINT Spine
  {
    OFFSET 0 11.8905 0
    CHANNELS 3 Zrotation Xrotation Yrotation
    JOINT Spine1
    {
      OFFSET 0 25.6574 0.127663
      CHANNELS 3 Zrotation Xrotation Yrotation
      JOINT HEad
      {
        OFFSET 0 8.73416 0.011341
        CHANNELS 3 Zrotation Xrotation Yrotation
        End Site
        {
          OFFSET -0.29 12.7742 2.51395
        }
      }
      JOINT LeftShoulder1
      {
        OFFSET 8.99 -0.362252 -0.22
        CHANNELS 3 Zrotation Xrotation Yrotation
        JOINT LeftArm
        {
          OFFSET 10.2827 -0.00338 0.322123
          CHANNELS 3 Zrotation Xrotation Yrotation
          JOINT LeftForeArm
          {
            OFFSET 32.7669 0.099144 -1.42434
            CHANNELS 3 Zrotation Xrotation Yrotation
            JOINT LeftHand
            {
              OFFSET 27.5643 0.085362 1.02216
              CHANNELS 3 Zrotation Xrotation Yrotation
              End Site
              {
                OFFSET 16.7443 -0.6 1.50291
              }
            }
          }
        }
      }
      JOINT RightShoulder
      {
        OFFSET -8.99 -0.362252 -0.22
        CHANNELS 3 Zrotation Xrotation Yrotation
        JOINT RightArm
        {
          OFFSET -10.2827 -0.00338 0.322123
          CHANNELS 3 Zrotation Xrotation Yrotation
          JOINT RightForeArm
          {
            OFFSET -32.8971 0.099144 -1.42434
            CHANNELS 3 Zrotation Xrotation Yrotation
            JOINT RightHand
            {
              OFFSET -27.4921 0.085362 1.02216
              CHANNELS 3 Zrotation Xrotation Yrotation
              End Site
              {
                OFFSET -16.6312 -0.6 1.50291
              }
            }
          }
        }
      }
    }
  }
  JOINT LeftUpLeg
  {
    OFFSET 8.9458 -8.66707 0.101652
    CHANNELS 3 Zrotation Xrotation Yrotation
    JOINT LeftLeg
    {
      OFFSET 0 -44.4227 1.3727
      CHANNELS 3 Zrotation Xrotation Yrotation
      JOINT LeftFoot
      {
        OFFSET -0.253549 -42.0924 -1.46059
        CHANNELS 3 Zrotation Xrotation Yrotation
        JOINT LeftToes
        {
          OFFSET -0.04 -4.41509 8.4991
          CHANNELS 3 Zrotation Xrotation Yrotation
          End Site
          {
            OFFSET 0.08 -0.047448 9.77979
          }
        }
      }
    }
  }
}
MOTION
Frames:	14
Frame Time:	0.0166667
76.641	102.051	-160.478	-14.1289	6.01522	179.155	-24.3638	-10.4454	-21.0572	-3.98692	51.9654	16.6503	2.18703	-2.26327	-12.2149	0.0462048	0.000533964	0.662642	-1.13107	3.12249	-1.08552	-2.20753	6.26807	-2.11391	-7.47406	45.7335	16.0677	2.39E-15	-7.95E-16	7.95E-16	-52.2479	34.7434	32.6032	-17.382	27.0655	-122.152	3.64836	-7.46761	-0.316499	2.39E-15	-7.95E-16	7.95E-16	71.227	31.5299	-37.8373	-12.4037	4.56486	119.373	4.76365	8.3171	10.432	117.617	-67.9539	123.964	-77.2776	78.0214	84.3836	-18.6121	-0.514448	-27.253	1.67E-14	2.86E-14	3.18E-15
76.623	101.568	-161.161	-13.2921	6.1333	178.332	-23.7114	-10.6632	-21.5689	-5.19642	52.9268	18.1483	2.30357	-2.53118	-12.4049	0.0462048	0.000533964	0.662642	-1.05E+00	3.06811	-1.08764	-2.05383	6.158	-2.12326	-7.99578	45.9836	16.9486	4.97E-17	-7.95E-16	7.95E-16	-52.09	34.6561	32.1713	-17.4665	27.0129	-121.582	3.86368	-7.10201	-0.654093	4.97E-17	-7.95E-16	7.95E-16	71.3467	31.393	-37.8375	-12.6979	4.37077	119.262	5.05469	8.38905	10.2579	115.67	-68.5674	121.852	-67.8612	78.3254	75.2256	-18.475	-0.66749	-27.1368	1.27E-14	3.50E-14	6.36E-15
76.549	101.09	-161.893	-12.5295	6.16765	177.366	-23.2867	-10.9478	-21.6863	-5.74666	53.8567	18.8951	2.78868	-2.6896	-12.732	0.0462048	0.000533964	0.662642	-1.0105	2.99912	-1.07723	-1.96831	6.01907	-2.10579	-8.57857	45.9843	18.0025	-5.47E-16	-7.95E-16	0.00E+00	-51.9335	34.4013	31.8268	-17.6235	27.0646	-120.963	4.14714	-6.53334	-0.919498	-5.47E-16	-7.95E-16	0.00E+00	71.4164	31.2936	-37.7431	-13.1039	4.17746	119.158	5.37835	8.45406	10.084	113.089	-69.0712	119.388	-57.0757	78.4114	64.8422	-18.5337	-0.800341	-27.1208	1.67E-14	3.50E-14	6.36E-15
76.502	100.59	-162.617	-11.728	6.26846	176.302	-22.9079	-11.1807	-21.1562	-5.46541	54.9434	18.5329	2.79732	-2.8438	-12.4431	0.0462048	0.000533964	0.662642	-0.957973	2.93671	-1.04491	-1.86576	5.89281	-2.04466	-9.15489	45.8654	19.1283	1.99E-16	0.00E+00	1.59E-15	-51.9877	34.068	31.7341	-17.6306	27.1616	-120.438	4.66221	-5.66502	-1.0635	1.99E-16	0.00E+00	1.59E-15	71.5455	31.213	-37.7109	-13.4208	4.03529	119.024	5.61966	8.45946	9.96047	109.606	-69.4794	116.023	-46.2694	78.0395	54.3857	-18.6949	-1.12265	-27.1109	1.59E-14	2.23E-14	3.18E-15
76.453	100.085	-163.387	-10.9734	6.60111	175.305	-22.606	-10.9849	-20.5638	-5.12307	55.9117	18.1235	2.68663	-3.18377	-11.7752	0.0462048	0.000533964	0.662642	-0.927144	2.91234	-1.02027	-1.80564	5.84316	-1.99724	-9.63709	45.8738	20.2143	5.47E-16	0.00E+00	1.59E-15	-52.3854	33.8642	31.8354	-17.3957	27.0484	-119.997	5.4211	-4.49426	-1.1635	5.47E-16	0.00E+00	1.59E-15	71.8598	31.2363	-37.8341	-13.4598	3.9447	118.781	5.73056	8.42878	9.88956	104.653	-69.8668	111.234	-36.5516	77.2042	44.9274	-18.7862	-1.63975	-27.1527	1.75E-14	2.23E-14	9.54E-15
76.403	99.606	-164.215	-10.1969	7.16094	174.527	-22.1667	-10.2839	-20.0638	-4.97042	56.6039	18.1588	2.99274	-3.69942	-11.9782	0.0462048	0.000533964	0.662642	-0.894278	2.92624	-1.0186	-1.73965	5.87037	-1.99539	-9.94631	46.17	21.1421	-8.95E-16	-3.98E-16	-1.59E-15	-53.0715	34.015	31.9262	-17.0727	26.5329	-119.545	6.23962	-3.07333	-1.33476	-8.95E-16	-3.98E-16	-1.59E-15	72.3533	31.3521	-38.0905	-13.2249	3.86755	118.383	5.77702	8.43427	9.81345	98.1998	-70.329	104.938	-28.3255	75.9185	36.9265	-18.7765	-2.33358	-27.1927	2.07E-14	1.59E-14	4.77E-15
76.443	99.1945	-165.082	-9.18333	7.49641	173.683	-21.2137	-9.63236	-19.7877	-5.50009	56.8621	19.2146	2.61727	-4.10516	-11.9043	0.0462048	0.000533964	0.662642	-0.793674	2.89299	-0.995355	-1.53977	5.80188	-1.95438	-10.2211	46.5193	22.0701	-1.94E-15	3.98E-16	1.59E-15	-53.7839	34.3032	31.8678	-16.8319	25.6831	-119.078	6.81195	-1.61377	-1.54636	-1.94E-15	3.98E-16	1.59E-15	72.8779	31.6031	-38.1936	-12.9206	3.76155	117.861	5.82553	8.42269	9.73833	91.446	-70.4503	97.8993	-22.531	74.0365	31.4529	-18.6341	-3.20085	-27.2351	1.75E-14	3.18E-14	6.36E-15
76.53	98.8574	-166.006	-7.97738	7.33027	172.678	-19.9313	-9.46483	-19.3704	-6.06623	56.9146	20.4912	2.01522	-4.25616	-11.5597	0.0462048	0.000533964	0.662642	-0.629549	2.79567	-0.923812	-1.21598	5.60376	-1.82024	-10.4857	46.6229	23.0274	-3.48E-16	0.00E+00	0.00E+00	-54.1862	34.4115	31.5131	-16.6255	24.7973	-118.69	6.95997	-0.384086	-1.68982	-3.48E-16	0.00E+00	0.00E+00	73.3361	31.8168	-37.9274	-12.7878	3.57487	117.268	5.96195	8.40704	9.67163	85.4253	-70.0198	90.9636	-19.3087	71.5599	28.7223	-18.4966	-4.17255	-27.4354	1.59E-14	2.54E-14	4.77E-15
76.552	98.574	-166.976	-7.03362	7.28611	171.689	-19.0392	-9.344	-18.4059	-6.05413	57.2809	21.0331	1.78317	-4.22401	-11.5575	0.0462048	0.000533964	0.662642	-0.579247	2.73559	-0.902876	-1.1171	5.48263	-1.78125	-10.9633	46.7075	24.3523	-1.14E-15	1.99E-16	0.00E+00	-54.4651	34.1566	31.3456	-16.4874	24.2287	-118.312	6.93701	1.06208	-1.6822	-1.14E-15	1.99E-16	0.00E+00	73.8438	32.1088	-37.6366	-12.864	3.34057	116.722	6.16677	8.35931	9.62937	78.2887	-69.3307	83.1907	-16.3736	68.7151	26.4372	-18.5156	-5.10521	-27.7637	1.59E-14	2.86E-14	6.36E-15
76.437	98.31	-168.041	-6.65157	7.70672	170.783	-19.0857	-8.9637	-16.9218	-5.042	58.1837	19.8292	2.15704	-4.04393	-11.6326	0.0462048	0.000533964	0.662642	-0.737846	2.72208	-0.942862	-1.4331	5.45851	-1.85386	-11.6881	47.0285	25.9971	-7.70E-16	0.00E+00	0.00E+00	-54.9176	33.6853	31.6176	-16.408	23.9529	-117.892	6.95261	2.85806	-1.44165	-7.70E-16	0.00E+00	0.00E+00	74.3563	32.4737	-37.638	-12.8947	3.21426	116.3	6.35091	8.25845	9.59997	69.1464	-68.3363	74.0583	-13.6022	65.581	24.2532	-18.5805	-5.99224	-28.054	1.91E-14	3.50E-14	6.36E-15
76.277	97.9635	-169.2	-6.45314	8.25443	169.716	-19.6863	-8.64092	-15.2123	-3.33467	59.5918	17.4962	2.79338	-3.9756	-11.1976	0.0462048	0.000533964	0.662642	-0.933293	2.68978	-0.912831	-1.82653	5.39654	-1.78477	-12.5224	47.553	27.6231	3.11E-17	1.24E-16	-3.18E-15	-55.6113	33.2343	32.0795	-16.4898	23.7434	-117.427	6.83273	4.28021	-0.984914	3.11E-17	1.24E-16	-3.18E-15	74.4879	32.6922	-37.753	-12.5653	3.42174	116.046	6.40499	8.16594	9.55492	60.1543	-66.7348	65.0566	-11.5543	62.2911	22.4447	-18.5453	-7.06653	-28.0538	1.27E-14	3.82E-14	7.95E-15
75.997	97.5297	-170.389	-6.42345	8.89878	168.793	-20.6742	-8.0739	-14.2591	-2.68826	60.7096	16.9634	4.04012	-3.92561	-11.1909	0.0462048	0.000533964	0.662642	-1.15305	2.64858	-0.88402	-2.26864	5.31692	-1.71738	-13.3159	48.1999	29.0223	-1.19E-15	-3.48E-16	-1.59E-15	-56.592	32.9375	32.681	-16.9603	23.235	-116.916	6.22344	5.1461	-0.493024	-1.19E-15	-3.48E-16	-1.59E-15	74.147	32.6272	-37.8388	-12.0369	4.02324	115.985	6.30255	8.10985	9.52434	51.7348	-64.6923	56.3697	-10.2779	59.0665	20.9999	-18.3583	-8.12507	-27.9166	2.07E-14	4.13E-14	1.11E-14
75.635	97.0731	-171.609	-5.772	9.1736	167.758	-20.997	-7.58305	-14.0406	-3.01672	61.2837	17.858	4.95757	-3.67758	-10.98	0.0462048	0.000533964	0.662642	-1.15254	2.56791	-0.806982	-2.27215	5.15409	-1.56457	-13.8956	48.7188	30.1178	-8.45E-16	-2.98E-16	-3.18E-15	-57.725	32.7052	33.4129	-17.9434	22.3091	-116.443	5.34041	5.73259	-0.102218	-8.45E-16	-2.98E-16	-3.18E-15	73.6129	32.3607	-37.7255	-11.7038	4.68232	116.05	6.15717	8.17756	9.46087	45.8605	-62.3219	48.884	-10.0087	55.9373	20.4884	-18.2554	-9.364	-27.669	1.43E-14	2.86E-14	3.18E-15
75.242	96.6231	-172.833	-4.82826	8.82322	166.936	-20.9731	-7.37246	-14.6897	-3.76273	61.5504	19.6015	5.74726	-3.54327	-11.308	0.0462048	0.000533964	0.662642	-1.04146	2.40097	-0.81169	-2.05143	4.81885	-1.58179	-14.287	49.0306	31.117	-4.47E-16	0.00E+00	0.00E+00	-58.7883	32.1679	34.2246	-19.0188	21.4602	-116.124	4.75844	6.32326	0.229494	-4.47E-16	0.00E+00	0.00E+00	73.2573	32.0856	-37.3612	-11.6949	5.01931	116.071	6.13702	8.34279	9.34433	41.7215	-60.347	42.081	-10.4183	52.7247	20.9399	-18.1581	-10.4415	-27.3663	1.27E-14	3.50E-14	4.77E-15
